<svg xmlns="http://www.w3.org/2000/svg" xmlns:xlink="http://www.w3.org/1999/xlink" viewBox="0 0 100 100"><path fill="#c7ede6" d="M87.215,56.71C88.35,54.555,89,52.105,89,49.5c0-6.621-4.159-12.257-10.001-14.478C78.999,35.015,79,35.008,79,35c0-11.598-9.402-21-21-21c-9.784,0-17.981,6.701-20.313,15.757C36.211,29.272,34.638,29,33,29c-7.692,0-14.023,5.793-14.89,13.252C12.906,43.353,9,47.969,9,53.5C9,59.851,14.149,65,20.5,65c0.177,0,0.352-0.012,0.526-0.022C21.022,65.153,21,65.324,21,65.5C21,76.822,30.178,86,41.5,86c6.437,0,12.175-2.972,15.934-7.614C59.612,80.611,62.64,82,66,82c4.65,0,8.674-2.65,10.666-6.518C77.718,75.817,78.837,76,80,76c6.075,0,11-4.925,11-11C91,61.689,89.53,58.727,87.215,56.71z"/><path fill="#fdfcef" d="M79.5,60.5c0,0,4.015,0,6.5,0s4.5-2.015,4.5-4.5c0-2.333-1.782-4.229-4.055-4.455 C86.467,51.364,86.5,51.187,86.5,51c0-2.485-2.015-4.5-4.5-4.5c-1.438,0-2.703,0.686-3.527,1.736 C78.333,45.6,76.171,43.5,73.5,43.5c-2.761,0-5,2.239-5,5c0,0.446,0.077,0.87,0.187,1.282C68.045,49.005,67.086,48.5,66,48.5 c-1.781,0-3.234,1.335-3.455,3.055C62.364,51.533,62.187,51.5,62,51.5c-2.485,0-4.5,2.015-4.5,4.5s2.015,4.5,4.5,4.5s9.5,0,9.5,0h5 V61h3V60.5z"/><path fill="#472b29" d="M73.5,43c-3.033,0-5.5,2.467-5.5,5.5c0,0.016,0,0.031,0,0.047C67.398,48.192,66.71,48,66,48 c-1.831,0-3.411,1.261-3.858,3.005C62.095,51.002,62.048,51,62,51c-2.757,0-5,2.243-5,5s2.243,5,5,5h14.5 c0.276,0,0.5-0.224,0.5-0.5S76.776,60,76.5,60H62c-2.206,0-4-1.794-4-4s1.794-4,4-4c0.117,0,0.23,0.017,0.343,0.032l0.141,0.019 c0.021,0.003,0.041,0.004,0.062,0.004c0.246,0,0.462-0.185,0.495-0.437C63.232,50.125,64.504,49,66,49 c0.885,0,1.723,0.401,2.301,1.1c0.098,0.118,0.241,0.182,0.386,0.182c0.078,0,0.156-0.018,0.228-0.056 c0.209-0.107,0.314-0.346,0.254-0.573C69.054,49.218,69,48.852,69,48.5c0-2.481,2.019-4.5,4.5-4.5c2.381,0,4.347,1.872,4.474,4.263 c0.011,0.208,0.15,0.387,0.349,0.45c0.05,0.016,0.101,0.024,0.152,0.024c0.15,0,0.296-0.069,0.392-0.192 C79.638,47.563,80.779,47,82,47c2.206,0,4,1.794,4,4c0,0.117-0.017,0.23-0.032,0.343l-0.019,0.141 c-0.016,0.134,0.022,0.268,0.106,0.373s0.207,0.172,0.34,0.185C88.451,52.247,90,53.949,90,56c0,2.206-1.794,4-4,4h-6.5 c-0.276,0-0.5,0.224-0.5,0.5s0.224,0.5,0.5,0.5H86c2.757,0,5-2.243,5-5c0-2.397-1.689-4.413-4.003-4.877 C86.999,51.082,87,51.041,87,51c0-2.757-2.243-5-5-5c-1.176,0-2.293,0.416-3.183,1.164C78.219,44.76,76.055,43,73.5,43L73.5,43z"/><path fill="#472b29" d="M72,50c-1.403,0-2.609,0.999-2.913,2.341C68.72,52.119,68.301,52,67.875,52 c-1.202,0-2.198,0.897-2.353,2.068C65.319,54.022,65.126,54,64.938,54c-1.529,0-2.811,1.2-2.918,2.732 C62.01,56.87,62.114,56.99,62.251,57c0.006,0,0.012,0,0.018,0c0.13,0,0.24-0.101,0.249-0.232c0.089-1.271,1.151-2.268,2.419-2.268 c0.229,0,0.47,0.042,0.738,0.127c0.022,0.007,0.045,0.01,0.067,0.01c0.055,0,0.11-0.02,0.156-0.054 C65.962,54.537,66,54.455,66,54.375c0-1.034,0.841-1.875,1.875-1.875c0.447,0,0.885,0.168,1.231,0.473 c0.047,0.041,0.106,0.063,0.165,0.063c0.032,0,0.063-0.006,0.093-0.019c0.088-0.035,0.148-0.117,0.155-0.212 C69.623,51.512,70.712,50.5,72,50.5c0.208,0,0.425,0.034,0.682,0.107c0.023,0.007,0.047,0.01,0.07,0.01 c0.109,0,0.207-0.073,0.239-0.182c0.038-0.133-0.039-0.271-0.172-0.309C72.517,50.04,72.256,50,72,50L72,50z"/><path fill="#472b29" d="M85.883,51.5c-1.326,0-2.508,0.897-2.874,2.182c-0.038,0.133,0.039,0.271,0.172,0.309 C83.205,53.997,83.228,54,83.25,54c0.109,0,0.209-0.072,0.24-0.182C83.795,52.748,84.779,52,85.883,52 c0.117,0,0.23,0.014,0.342,0.029c0.012,0.002,0.023,0.003,0.035,0.003c0.121,0,0.229-0.092,0.246-0.217 c0.019-0.137-0.077-0.263-0.214-0.281C86.158,51.516,86.022,51.5,85.883,51.5L85.883,51.5z"/><path fill="#fff" d="M15.405,51H5.5C5.224,51,5,50.776,5,50.5S5.224,50,5.5,50h9.905c0.276,0,0.5,0.224,0.5,0.5 S15.682,51,15.405,51z"/><path fill="#fff" d="M18.5,51h-1c-0.276,0-0.5-0.224-0.5-0.5s0.224-0.5,0.5-0.5h1c0.276,0,0.5,0.224,0.5,0.5 S18.777,51,18.5,51z"/><path fill="#fff" d="M23.491,53H14.5c-0.276,0-0.5-0.224-0.5-0.5s0.224-0.5,0.5-0.5h8.991c0.276,0,0.5,0.224,0.5,0.5 S23.767,53,23.491,53z"/><path fill="#fff" d="M12.5,53h-1c-0.276,0-0.5-0.224-0.5-0.5s0.224-0.5,0.5-0.5h1c0.276,0,0.5,0.224,0.5,0.5 S12.777,53,12.5,53z"/><path fill="#fff" d="M9.5,53h-2C7.224,53,7,52.776,7,52.5S7.224,52,7.5,52h2c0.276,0,0.5,0.224,0.5,0.5S9.777,53,9.5,53z"/><path fill="#fff" d="M15.5,55h-2c-0.276,0-0.5-0.224-0.5-0.5s0.224-0.5,0.5-0.5h2c0.276,0,0.5,0.224,0.5,0.5 S15.776,55,15.5,55z"/><path fill="#fff" d="M18.5,46c-0.177,0-0.823,0-1,0c-0.276,0-0.5,0.224-0.5,0.5s0.224,0.5,0.5,0.5c0.177,0,0.823,0,1,0 c0.276,0,0.5-0.224,0.5-0.5S18.776,46,18.5,46z"/><path fill="#fff" d="M18.5,48c-0.177,0-4.823,0-5,0c-0.276,0-0.5,0.224-0.5,0.5s0.224,0.5,0.5,0.5c0.177,0,4.823,0,5,0 c0.276,0,0.5-0.224,0.5-0.5S18.776,48,18.5,48z"/><path fill="#fff" d="M23.5,50c-0.177,0-2.823,0-3,0c-0.276,0-0.5,0.224-0.5,0.5s0.224,0.5,0.5,0.5c0.177,0,2.823,0,3,0 c0.276,0,0.5-0.224,0.5-0.5S23.776,50,23.5,50z"/><g><path fill="#fff" d="M74.5,28h-10c-0.276,0-0.5-0.224-0.5-0.5s0.224-0.5,0.5-0.5h10c0.276,0,0.5,0.224,0.5,0.5 S74.776,28,74.5,28z"/><path fill="#fff" d="M78.5,28h-2c-0.276,0-0.5-0.224-0.5-0.5s0.224-0.5,0.5-0.5h2c0.276,0,0.5,0.224,0.5,0.5 S78.776,28,78.5,28z"/><path fill="#fff" d="M83.5,30h-10c-0.276,0-0.5-0.224-0.5-0.5s0.224-0.5,0.5-0.5h10c0.276,0,0.5,0.224,0.5,0.5 S83.777,30,83.5,30z"/><path fill="#fff" d="M71.5,30h-1c-0.276,0-0.5-0.224-0.5-0.5s0.224-0.5,0.5-0.5h1c0.276,0,0.5,0.224,0.5,0.5 S71.776,30,71.5,30z"/><path fill="#fff" d="M68.375,30H66.5c-0.276,0-0.5-0.224-0.5-0.5s0.224-0.5,0.5-0.5h1.875c0.276,0,0.5,0.224,0.5,0.5 S68.651,30,68.375,30z"/><path fill="#fff" d="M77.5,26h-5c-0.276,0-0.5-0.224-0.5-0.5s0.224-0.5,0.5-0.5h5c0.276,0,0.5,0.224,0.5,0.5 S77.777,26,77.5,26z"/><path fill="#fff" d="M74.5,32h-2c-0.276,0-0.5-0.224-0.5-0.5s0.224-0.5,0.5-0.5h2c0.276,0,0.5,0.224,0.5,0.5 S74.776,32,74.5,32z"/></g><g><path fill="#ee3e54" d="M37.375,56.625v-2.2c0-0.577,0.472-1.05,1.05-1.05h3.15c0.577,0,1.05,0.472,1.05,1.05v2.2H37.375z"/><path fill="#472b29" d="M42.625,57h-5.25C37.168,57,37,56.832,37,56.625v-2.2C37,53.639,37.639,53,38.425,53h3.15 C42.361,53,43,53.639,43,54.425v2.2C43,56.832,42.832,57,42.625,57z M37.75,56.25h4.5v-1.825c0-0.372-0.303-0.675-0.675-0.675 h-3.15c-0.372,0-0.675,0.303-0.675,0.675V56.25z"/><path fill="#7c8ba2" d="M50.5,37.5h5v15h-5V37.5z"/><path fill="#472b29" d="M55.5,53h-5c-0.276,0-0.5-0.224-0.5-0.5v-15c0-0.276,0.224-0.5,0.5-0.5h5 c0.276,0,0.5,0.224,0.5,0.5v15C56,52.776,55.776,53,55.5,53z M51,52h4V38h-4V52z"/><path fill="#a2b3cb" d="M58.554,56.5c-0.275-1.738-1.379-3.209-2.908-4.007h-5.292c-1.529,0.799-2.633,2.269-2.908,4.007 H58.554z"/><path fill="#472b29" d="M58.554,57H47.446c-0.146,0-0.285-0.064-0.38-0.175s-0.136-0.258-0.113-0.403 c0.293-1.854,1.478-3.488,3.17-4.373C50.194,52.012,50.274,52,50.354,52h5.292c0.081,0,0.16,0.012,0.231,0.049 c1.692,0.884,2.877,2.519,3.17,4.373c0.023,0.145-0.019,0.292-0.113,0.403C58.839,56.936,58.701,57,58.554,57z M48.068,56h9.864 c-0.363-1.263-1.232-2.348-2.412-3h-5.04C49.3,53.652,48.431,54.737,48.068,56z"/><g><path fill="#55a7f9" d="M71,57c1.654,0,3,1.346,3,3v6h1c0.552,0,1,0.448,1,1v3c0,0.552-0.448,1-1,1H31 c-0.552,0-1-0.448-1-1v-3c0-0.552,0.448-1,1-1h1v-6c0-1.657,1.343-3,3-3H71"/><path fill="#2d80d3" d="M75,71H31c-0.552,0-1-0.448-1-1v-3c0-0.552,0.448-1,1-1h43.083H75c0.552,0,1,0.448,1,1v3 C76,70.552,75.552,71,75,71z"/><path fill="#472b29" d="M71,57.4c1.434,0,2.6,1.166,2.6,2.6v6.75H75c0.331,0,0.6,0.269,0.6,0.6V70 c0,0.331-0.269,0.6-0.6,0.6H31c-0.331,0-0.6-0.269-0.6-0.6v-2.65c0-0.331,0.269-0.6,0.6-0.6h1.4V60c0-1.434,1.166-2.6,2.6-2.6H71 M71,56H35c-2.209,0-4,1.791-4,4v5.35c-1.105,0-2,0.895-2,2V70c0,1.105,0.895,2,2,2h44c1.105,0,2-0.895,2-2v-2.65 c0-1.105-0.895-2-2-2V60C75,57.791,73.209,56,71,56L71,56z"/><path fill="#472b29" d="M59.625,66.75H32c-0.207,0-0.375-0.168-0.375-0.375S31.792,66,32,66h27.625 C59.832,66,60,66.168,60,66.375S59.832,66.75,59.625,66.75z"/><path fill="#472b29" d="M63.625,66.75h-1.25c-0.207,0-0.375-0.168-0.375-0.375S62.168,66,62.375,66h1.25 C63.832,66,64,66.168,64,66.375S63.832,66.75,63.625,66.75z"/><path fill="#472b29" d="M68.625,66.75h-2.25c-0.207,0-0.375-0.168-0.375-0.375S66.168,66,66.375,66h2.25 C68.832,66,69,66.168,69,66.375S68.832,66.75,68.625,66.75z"/><path fill="#472b29" d="M74,66.75h-2.625c-0.207,0-0.375-0.168-0.375-0.375S71.168,66,71.375,66H74 c0.207,0,0.375,0.168,0.375,0.375S74.207,66.75,74,66.75z"/></g><g><path fill="#ee3e54" d="M52.99,25.5c-3.584,0-6.49,2.906-6.49,6.49s2.906,6.49,6.49,6.49s6.49-2.906,6.49-6.49 S56.575,25.5,52.99,25.5z"/><path fill="#472b29" d="M52.99,38.98c-3.854,0-6.99-3.136-6.99-6.99S49.136,25,52.99,25s6.99,3.136,6.99,6.99 S56.845,38.98,52.99,38.98z M52.99,26C49.687,26,47,28.687,47,31.99s2.687,5.99,5.99,5.99s5.99-2.687,5.99-5.99 S56.293,26,52.99,26z"/><path fill="#472b29" d="M51.25,28.96c-0.089,0-0.176-0.048-0.221-0.133c-0.064-0.122-0.018-0.273,0.104-0.338 c0.514-0.271,1.052-0.427,1.6-0.463c0.134-0.01,0.257,0.095,0.266,0.233s-0.095,0.257-0.233,0.266 c-0.478,0.032-0.949,0.168-1.4,0.407C51.33,28.951,51.29,28.96,51.25,28.96z"/><path fill="#472b29" d="M49.325,33c-0.116,0-0.22-0.082-0.245-0.2C49.027,32.537,49,32.268,49,32 c0-0.643,0.163-1.271,0.484-1.869c0.066-0.122,0.217-0.166,0.339-0.102c0.122,0.065,0.167,0.217,0.102,0.339 C49.643,30.892,49.5,31.441,49.5,32c0,0.234,0.024,0.47,0.071,0.7c0.027,0.135-0.06,0.267-0.195,0.295 C49.359,32.999,49.342,33,49.325,33z"/></g></g><g><path fill="#fdfcef" d="M36.5,73.5c0,0,1.567,0,3.5,0s3.5-1.567,3.5-3.5c0-1.781-1.335-3.234-3.055-3.455 C40.473,66.366,40.5,66.187,40.5,66c0-1.933-1.567-3.5-3.5-3.5c-1.032,0-1.95,0.455-2.59,1.165 c-0.384-1.808-1.987-3.165-3.91-3.165c-2.209,0-4,1.791-4,4c0,0.191,0.03,0.374,0.056,0.558C26.128,64.714,25.592,64.5,25,64.5 c-1.228,0-2.245,0.887-2.455,2.055C22.366,66.527,22.187,66.5,22,66.5c-1.933,0-3.5,1.567-3.5,3.5s1.567,3.5,3.5,3.5s7.5,0,7.5,0 V74h7V73.5z"/><path fill="#472b29" d="M38.25,69C38.112,69,38,68.888,38,68.75c0-1.223,0.995-2.218,2.218-2.218 c0.034,0.009,0.737-0.001,1.244,0.136c0.133,0.036,0.212,0.173,0.176,0.306c-0.036,0.134-0.173,0.213-0.306,0.176 c-0.444-0.12-1.1-0.12-1.113-0.118c-0.948,0-1.719,0.771-1.719,1.718C38.5,68.888,38.388,69,38.25,69z"/><circle cx="31.5" cy="73.5" r=".5" fill="#472b29"/><path fill="#472b29" d="M40,74h-3.5c-0.276,0-0.5-0.224-0.5-0.5s0.224-0.5,0.5-0.5H40c1.654,0,3-1.346,3-3 c0-1.496-1.125-2.768-2.618-2.959c-0.134-0.018-0.255-0.088-0.336-0.196s-0.115-0.244-0.094-0.377C39.975,66.314,40,66.16,40,66 c0-1.654-1.346-3-3-3c-0.85,0-1.638,0.355-2.219,1c-0.125,0.139-0.321,0.198-0.5,0.148c-0.182-0.049-0.321-0.195-0.36-0.379 C33.58,62.165,32.141,61,30.5,61c-1.93,0-3.5,1.57-3.5,3.5c0,0.143,0.021,0.28,0.041,0.418c0.029,0.203-0.063,0.438-0.242,0.54 s-0.396,0.118-0.556-0.01C25.878,65.155,25.449,65,25,65c-0.966,0-1.792,0.691-1.963,1.644c-0.048,0.267-0.296,0.446-0.569,0.405 C22.314,67.025,22.16,67,22,67c-1.654,0-3,1.346-3,3s1.346,3,3,3h7.5c0.276,0,0.5,0.224,0.5,0.5S29.776,74,29.5,74H22 c-2.206,0-4-1.794-4-4s1.794-4,4-4c0.059,0,0.116,0.002,0.174,0.006C22.588,64.82,23.711,64,25,64c0.349,0,0.689,0.061,1.011,0.18 C26.176,61.847,28.126,60,30.5,60c1.831,0,3.466,1.127,4.153,2.774C35.333,62.276,36.155,62,37,62c2.206,0,4,1.794,4,4 c0,0.048-0.001,0.095-0.004,0.142C42.739,66.59,44,68.169,44,70C44,72.206,42.206,74,40,74z"/><path fill="#472b29" d="M34.5,73c-0.159,0-0.841,0-1,0c-0.276,0-0.5,0.224-0.5,0.5s0.224,0.5,0.5,0.5c0.159,0,0.841,0,1,0 c0.276,0,0.5-0.224,0.5-0.5S34.776,73,34.5,73z"/></g></svg>